<?xml version="1.0" encoding="UTF-8"?>
<svg id="Calque_1" data-name="Calque 1" xmlns="http://www.w3.org/2000/svg" version="1.1" viewBox="0 0 3000 3000">
  <defs>
    <style>
      .cls-1 {
        fill: #d08d08;
        stroke-width: 0px;
      }
    </style>
  </defs>
  <g>
    <path class="cls-1" d="M1500,1292.1c-114.7,0-207.6,93-207.6,207.6s93,207.6,207.6,207.6,207.6-93,207.6-207.6-93-207.6-207.6-207.6ZM1654.4,1375.1l-32.8,17.9c-3.1-3.5-6.2-6.8-9.6-10l19.3-31.9c8.3,7.4,16,15.4,23,24.1ZM1698.5,1499.7c0,2.6,0,5.2-.2,7.8l-36.4-8.1c0-4.7-.3-9.3-.7-13.9l35.6-11.3c1.1,8.4,1.7,16.9,1.7,25.5ZM1535.7,1657.6l16,33.8c-10.6,2.9-21.6,4.9-32.8,6l3.1-37.3c4.6-.6,9.2-1.4,13.7-2.4ZM1550.3,1653.6c4.4-1.4,8.8-3,13.1-4.8l21.7,30.2c-10,4.8-20.4,8.7-31.2,11.7l-3.6-37.1ZM1577,1642.2c4.1-2.2,8-4.7,11.9-7.2l26.8,25.9c-9,6.5-18.5,12.2-28.6,17.2l-10.1-35.8ZM1500,1652.6c-84.3,0-152.8-68.6-152.8-152.8s68.6-152.8,152.8-152.8,152.8,68.6,152.8,152.8-68.6,152.8-152.8,152.8ZM1423,1642.2l-10.1,35.8c-10-4.9-19.6-10.7-28.6-17.2l26.8-25.9c3.9,2.6,7.8,5,11.9,7.2ZM1436.6,1648.8c4.3,1.8,8.6,3.4,13.1,4.8l-3.6,37.1c-10.8-3.1-21.2-7-31.2-11.7l21.7-30.2ZM1464.3,1657.6c4.5,1,9,1.8,13.7,2.4l3.1,37.3c-11.2-1.1-22.2-3.1-32.8-6l16-33.8ZM1301.5,1499.7c0-8.6.6-17.2,1.7-25.5l35.6,11.3c-.4,4.6-.7,9.2-.7,13.9l-36.4,8.1c-.1-2.6-.2-5.2-.2-7.8ZM1361.3,1416.5l-35.5-11.8c5.4-9.8,11.6-19,18.4-27.8l24.7,28c-2.7,3.7-5.2,7.6-7.6,11.6ZM1354.1,1429.8c-2,4.2-3.8,8.4-5.5,12.7l-37-5.2c3.5-10.6,7.9-20.9,13.1-30.6l29.4,23.1ZM1343.9,1457c-1.2,4.4-2.3,8.9-3.1,13.5l-37.3,1.5c1.6-11.2,4.1-22,7.4-32.5l33.1,17.5ZM1338.8,1514.6c.4,4.7,1.1,9.2,1.9,13.7l-34.5,14.5c-2.4-10.7-3.9-21.8-4.5-33l37,4.8ZM1344.1,1543.1c1.2,4.5,2.7,8.9,4.3,13.2l-31.4,20.4c-4.3-10.2-7.7-20.8-10.3-31.7l37.3-1.9ZM1354.4,1570.2c2,4.2,4.2,8.2,6.6,12.2l-27.1,25.6c-6.1-9.3-11.4-19.1-15.8-29.3l36.4-8.5ZM1369.3,1595.1c2.7,3.7,5.6,7.4,8.6,10.8l-22.1,30c-7.6-8.1-14.6-16.7-20.8-26l34.3-14.9ZM1589.5,1364.8l13.3-34.8c9.5,5.8,18.5,12.4,26.9,19.7l-29,23.4c-3.6-2.9-7.3-5.7-11.2-8.2ZM1576.5,1357c-4.1-2.2-8.3-4.2-12.6-6l6.9-36.6c10.5,4,20.5,8.9,30,14.5l-24.3,28.2ZM1549.7,1345.6c-4.4-1.4-8.9-2.6-13.4-3.6l.2-37.4c11.1,2.1,21.8,5,32.2,8.8l-19,32.1ZM1521.4,1339.3c-4.5-.6-9.1-1-13.8-1.2l-6.5-36.9c11.3,0,22.4,1.1,33.2,3l-12.9,35.1ZM1492.4,1338.1c-4.6.2-9.2.6-13.8,1.2l-12.9-35.1c10.8-1.9,21.9-2.9,33.2-3l-6.5,36.9ZM1463.7,1342c-4.5,1-9,2.2-13.4,3.6l-19-32.1c10.3-3.8,21.1-6.8,32.2-8.8l.2,37.4ZM1436.1,1350.9c-4.3,1.8-8.5,3.9-12.6,6l-24.3-28.2c9.5-5.6,19.6-10.5,30-14.5l6.9,36.6ZM1410.5,1364.8c-3.9,2.6-7.6,5.3-11.2,8.2l-29-23.4c8.4-7.3,17.4-13.9,26.9-19.7l13.3,34.8ZM1630.7,1595.1l34.3,14.9c-6.2,9.3-13.2,17.9-20.8,26l-22.1-30c3-3.5,5.9-7.1,8.6-10.8ZM1639.1,1582.4c2.4-4,4.5-8,6.6-12.2l36.4,8.5c-4.5,10.3-9.8,20-15.8,29.3l-27.1-25.6ZM1651.6,1556.3c1.6-4.3,3.1-8.7,4.3-13.2l37.3,1.9c-2.6,10.9-6,21.6-10.3,31.7l-31.4-20.4ZM1659.3,1528.3c.8-4.5,1.5-9.1,1.9-13.7l37-4.8c-.6,11.3-2.1,22.3-4.5,33l-34.5-14.5ZM1659.2,1470.5c-.8-4.6-1.9-9.1-3.1-13.5l33.1-17.5c3.4,10.5,5.8,21.4,7.4,32.5l-37.3-1.5ZM1651.4,1442.5c-1.6-4.3-3.5-8.6-5.5-12.7l29.4-23.1c5.2,9.8,9.6,20,13.1,30.6l-37,5.2ZM1638.7,1416.4c-2.4-4-4.9-7.8-7.6-11.6l24.7-28c6.9,8.7,13.1,18,18.4,27.7l-35.5,11.8ZM1368.6,1351.1l19.3,31.9c-3.3,3.2-6.5,6.6-9.6,10l-32.8-17.9c7-8.6,14.7-16.7,23-24.1ZM1357.4,1637.6l31-20.7c3.4,3.2,6.8,6.3,10.4,9.2l-16.4,33.5c-9-6.6-17.3-14-25-21.9ZM1483.3,1697.5l9.8-36.1c2.3,0,4.6.3,6.9.3s4.6-.3,6.9-.3l9.8,36.1c-5.5.5-11.1.8-16.7.8s-11.2-.3-16.7-.8ZM1617.6,1659.6l-16.4-33.5c3.6-2.9,7.1-6,10.4-9.2l31,20.7c-7.7,8-16.1,15.3-25,21.9Z"/>
    <path class="cls-1" d="M1097.7,1498.6l-86.5-13.7c27.3-16.2,26.9-40,26.9-40-34.1,13.9-73.5,20.9-117.8,20.9s-20.3-.4-27.2-.7c-2.4-.2-4.5-.2-6.1-.2-19.4,0-35.4,15.6-35.4,34.7s16,34.7,35.4,34.7,3.7,0,6.1-.2c6.8-.3,16.1-.7,27.2-.7,44.3,0,83.7,7,117.8,20.9,0,0,.4-23.7-26.8-39.9,42.2-6.7,86.5-13.7,86.5-13.7,1.3-.2,1.2-2,0-2.2ZM1009.8,1505.5l-24.9,3.9,21.7,12.9c9.1,5.4,14.5,11.7,17.7,17.3-31-10.1-65.9-15.3-104-15.3s-19.5.3-27.7.7c-2.2.1-4.1.2-5.5.2-14.5,0-26.3-11.5-26.3-25.6s11.8-25.6,26.3-25.6,3.3,0,5.7.2c5.4.2,15.6.7,27.6.7,38.1,0,73-5.1,104-15.3-3.2,5.6-8.6,11.9-17.8,17.3l-21.7,12.9,25,3.9,36.4,5.8-36.4,5.8Z"/>
    <path class="cls-1" d="M970.1,1498.5l-80.4-7.7c-12.4-.8-12.5,18,0,17.3l80.5-7.3c1.4,0,1.4-2.2,0-2.3Z"/>
    <path class="cls-1" d="M1204.2,1422.6c-35.7,0-65.6,24.3-74.4,57.2,9.9,1.3,17.5,9.7,17.5,19.9s-7.6,18.6-17.5,19.9c8.8,32.9,38.7,57.2,74.4,57.2s43-9.8,57.1-25.4c-3.6-16.7-5.5-33.9-5.5-51.7s1.9-35,5.5-51.7c-14.1-15.6-34.4-25.4-57.1-25.4ZM1251.4,1548.5c-12.7,12.2-29.6,19.2-47.2,19.2-27.8,0-52.6-17.1-62.9-42.4,9.1-5,15.1-14.7,15.1-25.6s-6.1-20.5-15.1-25.6c10.3-25.3,35.1-42.4,62.9-42.4s34.5,6.9,47.2,19.2c-3.2,16.1-4.7,32.5-4.7,48.8s1.6,32.7,4.7,48.8Z"/>
    <path class="cls-1" d="M1165.8,1470c2.1,2.7,3.8,5.7,5.3,8.8,6.9-11.1,19.1-18.5,33.2-18.5s18.1,3.5,24.8,9.1c.4-3.6.7-7.1,1.2-10.7-7.5-4.8-16.5-7.6-26.1-7.6-15.6,0-29.5,7.4-38.4,18.9Z"/>
    <path class="cls-1" d="M1204.2,1538.7c-13.9,0-26.1-7.3-33-18.3-1.5,3.2-3.2,6.2-5.4,9,8.9,11.5,22.8,18.9,38.4,18.9s18.5-2.8,26.1-7.6c-.5-3.6-.8-7.4-1.2-11-6.8,5.6-15.3,9.1-24.8,9.1Z"/>
    <path class="cls-1" d="M2113.9,1391.9c-2.2,0-5.4,0-9,.3-6.3.2-14.1.6-23.2.6-53.7,0-96.1-13.3-126.5-39.7l-40.3,40.4-6.5,6.4-6.4-6.4c-28.3-28.3-65.9-43.9-106-43.9s-31,2.5-46.1,7.3l-6.8,2.2-3.8-6.1c-51.5-83.8-140.9-134-239.1-134s-187.6,50.1-239.1,134l-3.8,6.1-6.8-2.2c-15-4.8-30.5-7.3-46.1-7.3-40.1,0-77.7,15.6-106,43.9l-6.4,6.4-6.5-6.4-40.3-40.4c-30.4,26.4-72.9,39.7-126.5,39.7s-16.9-.4-23.2-.6c-3.7-.2-6.8-.3-9-.3-59.4,0-107.7,48.3-107.7,107.6s48.3,107.6,107.7,107.6,5.4,0,9-.3c6.3-.2,14.1-.6,23.2-.6,53.7,0,96.1,13.3,126.5,39.7l40.3-40.4,6.5-6.4,6.4,6.4c28.3,28.3,65.9,43.9,106,43.9s31-2.5,46.1-7.3l6.8-2.2,3.8,6.1c51.5,83.8,140.9,134,239.1,134s187.6-50.1,239.1-134l3.8-6.1,6.8,2.2c15,4.8,30.5,7.3,46.1,7.3,40.1,0,77.7-15.6,106-43.9l6.4-6.4,6.5,6.4,40.3,40.4c30.4-26.4,72.9-39.7,126.5-39.7s16.9.4,23.2.6c3.7.2,6.8.3,9,.3,59.4,0,107.7-48.3,107.7-107.6s-48.3-107.6-107.7-107.6ZM2113.9,1570.6c-1.8,0-4.4-.2-7.4-.2-6.3-.3-14.9-.7-24.8-.7-48.1,0-89.1,9.6-122.4,28.7l-18.7-18.7-32.3-32.3-6.8-6.8c-5.7,14.9-14.5,28.2-25.5,39.2-2.5,2.5-5,4.8-7.7,6.9-.5.5-1.2.9-1.7,1.4-20.1,16.1-44.8,24.8-70.7,24.8s-23.3-1.9-34.6-5.4c-.5-.2-1.2-.4-1.7-.5l-1.5-.5c-11.3-4.1-21.8-9.8-31.3-17-5.3,13.3-11.7,26-19,38-44.9,72.7-122.6,116-207.8,116s-162.9-43.3-207.8-116c-7.4-12-13.7-24.7-19-38-9.4,7.2-19.9,13-31.3,17l-1.5.5c-.5.2-1.1.3-1.7.5-11.3,3.5-22.9,5.4-34.6,5.4-26,0-50.7-8.7-70.7-24.8-.5-.5-1.1-.9-1.7-1.4-2.7-2.1-5.2-4.4-7.7-6.9-11-11-19.8-24.4-25.5-39.2l-6.8,6.8-32.3,32.3-18.7,18.7c-33.3-19.1-74.3-28.7-122.4-28.7s-18.5.4-24.8.7c-3.1,0-5.6.2-7.4.2-39.2,0-71.1-31.9-71.1-71.1s31.9-71.1,71.1-71.1,4.4.2,7.4.2c6.3.3,14.9.7,24.8.7,48.1,0,89.1-9.6,122.4-28.7l18.7,18.7,32.3,32.3,6.8,6.8c5.7-14.9,14.5-28.2,25.5-39.2,2.5-2.5,5-4.8,7.7-6.9.5-.5,1.2-.9,1.7-1.4,20.1-16.1,44.8-24.8,70.7-24.8s23.3,1.9,34.6,5.4c.5.2,1.2.4,1.7.5l1.5.5c11.3,4.1,21.8,9.8,31.3,17,5.3-13.3,11.7-26,19-38,44.9-72.7,122.6-116,207.8-116s162.9,43.3,207.8,116c7.4,12,13.7,24.7,19,38,9.4-7.2,19.9-13,31.3-17l1.5-.5c.5-.2,1.1-.3,1.7-.5,11.3-3.5,22.9-5.4,34.6-5.4,26,0,50.7,8.7,70.7,24.8.5.5,1.1.9,1.7,1.4,2.7,2.1,5.2,4.4,7.7,6.9,11,11,19.8,24.4,25.5,39.2l6.8-6.8,32.3-32.3,18.7-18.7c33.3,19.1,74.3,28.7,122.4,28.7s18.5-.4,24.8-.7c3.1,0,5.6-.2,7.4-.2,39.2,0,71.1,31.9,71.1,71.1s-31.9,71.1-71.1,71.1Z"/>
    <path class="cls-1" d="M2113.9,1363.4c-3.1,0-6.9.1-10.8.4h-2.7c0,.1-.8.1-.8.1-5.3.2-11.2.4-18,.4-46.5,0-82.8-11-107.9-32.7l-13.6-11.8-6.4-5.6-6,6-40.1,40.2c-31.5-25.4-70.9-39.3-111.7-39.3s-27.1,1.6-40.3,4.7c-57.7-84.8-152.7-135.3-255.4-135.3s-197.8,50.4-255.4,135.3c-13.3-3.1-26.8-4.7-40.3-4.7-40.8,0-80.2,13.9-111.7,39.3l-40.1-40.2-6-6-6.4,5.6-13.6,11.8c-25.1,21.7-61.4,32.7-107.9,32.7s-12.7-.2-18-.4h-.8s-2.9-.1-2.9-.1c-3.6-.2-7.5-.3-10.6-.3-75.1,0-136.1,61-136.1,136.1s61.1,136.1,136.1,136.1,7-.1,10.3-.3h3.6c5.4-.4,11.4-.6,18.3-.6,46.5,0,82.8,11,107.9,32.8l13.6,11.8,6.4,5.6,6-6,40.1-40.2c31.6,25.4,70.9,39.3,111.7,39.3s27.1-1.6,40.3-4.7c57.6,84.8,152.6,135.3,255.4,135.3s197.8-50.4,255.4-135.3c13.3,3.1,26.8,4.7,40.3,4.7,40.8,0,80.2-13.9,111.7-39.3l40.1,40.2,6,6,6.4-5.6,13.6-11.8c25.1-21.7,61.4-32.8,107.9-32.8s12.9.2,18.3.4l3.9.2c3.1.2,6.9.3,10.1.3,75.1,0,136.1-61,136.1-136.1s-61.1-136.1-136.1-136.1ZM2113.9,1626.4c-2.5,0-6.1,0-9.7-.3h-3.9c-5.3-.4-11.6-.6-18.7-.6-48.8,0-87.1,11.8-113.9,35l-13.6,11.8-46.1-46.1c-31,27.5-70.5,42.6-112.3,42.6s-29.8-2-44.4-6c-55.6,85.7-149,136.6-251.4,136.6s-195.8-50.9-251.4-136.6c-14.6,4-29.5,6-44.4,6-41.8,0-81.3-15.1-112.3-42.6l-46.1,46.1-13.6-11.8c-26.8-23.2-65.1-35-113.9-35s-13.3.2-18.7.5h-3.9c-3.6.4-7.2.5-9.7.5-70,0-127-56.9-127-126.9s57-126.9,127-126.9,6.1,0,10.2.3h2.9c5.4.3,11.8.6,19.1.6,48.8,0,87.1-11.8,113.9-35l13.6-11.8,46.1,46.1c31-27.5,70.5-42.6,112.3-42.6s29.8,2,44.4,6c55.7-85.7,149.1-136.6,251.4-136.6s195.8,50.9,251.4,136.6c14.6-4,29.4-6,44.4-6,41.8,0,81.3,15,112.3,42.6l46.1-46.1,13.6,11.8c26.8,23.2,65.1,35,113.9,35s13.7-.3,19.1-.5h2.9c4.2-.4,7.7-.4,10.2-.4,70,0,127,56.9,127,126.9s-57,126.9-127,126.9Z"/>
    <path class="cls-1" d="M1224.1,1499.5c0-11-8.9-19.9-19.9-19.9s-19.9,8.9-19.9,19.9,8.9,19.9,19.9,19.9,19.9-8.9,19.9-19.9Z"/>
    <path class="cls-1" d="M2113.1,1465c-1.6,0-3.7,0-6.1.2-6.8.3-16.1.7-27.2.7-44.3,0-83.7-7-117.8-20.9,0,0-.4,23.7,26.9,40l-86.5,13.7c-1.2.2-1.3,2,0,2.2,0,0,44.3,7,86.5,13.7-27.2,16.2-26.9,39.9-26.9,39.9,34.1-13.9,73.5-20.9,117.8-20.9s20.3.4,27.2.7c2.4.2,4.5.2,6.1.2,19.4,0,35.4-15.6,35.4-34.7s-16-34.7-35.4-34.7ZM2113.1,1525.3c-1.5,0-3.3,0-5.7-.2-8.1-.4-17-.7-27.6-.7-38.1,0-73,5.1-104,15.3,3.2-5.6,8.6-11.9,17.7-17.3l21.7-12.9-24.9-3.9-36.4-5.8,36.4-5.8,25-3.9-21.7-12.9c-9.1-5.4-14.6-11.7-17.8-17.3,31,10.1,65.9,15.3,104,15.3s22.1-.5,27.7-.7c2.2-.1,4.1-.2,5.5-.2,14.5,0,26.3,11.5,26.3,25.6s-11.8,25.6-26.3,25.6Z"/>
    <path class="cls-1" d="M2110.5,1490.9l-80.4,7.7c-1.4,0-1.4,2.2,0,2.3l80.5,7.3c12.5.7,12.4-18.1,0-17.3Z"/>
    <path class="cls-1" d="M1870.3,1479.8c-8.8-32.9-38.7-57.2-74.4-57.2s-43,9.9-57.1,25.4c3.6,16.7,5.5,33.9,5.5,51.7s-1.9,35-5.5,51.7c14.1,15.6,34.4,25.4,57.1,25.4,35.7,0,65.6-24.3,74.4-57.2-9.9-1.3-17.5-9.7-17.5-19.9s7.6-18.6,17.5-19.9ZM1858.8,1525.3c-10.3,25.3-35.1,42.4-62.9,42.4s-34.5-6.9-47.2-19.2c3.1-16.1,4.7-32.5,4.7-48.8s-1.6-32.7-4.7-48.8c12.7-12.2,29.6-19.2,47.2-19.2,27.8,0,52.6,17.1,62.9,42.4-9.1,5-15.1,14.7-15.1,25.6s6.1,20.5,15.1,25.6Z"/>
    <path class="cls-1" d="M1795.9,1451.2c-9.6,0-18.5,2.8-26.1,7.6.5,3.5.8,7.1,1.2,10.7,6.8-5.6,15.4-9.1,24.8-9.1,14,0,26.2,7.4,33.2,18.5,1.5-3.1,3.2-6.1,5.3-8.8-8.9-11.5-22.8-18.9-38.4-18.9Z"/>
    <path class="cls-1" d="M1795.9,1538.7c-9.5,0-18-3.5-24.8-9.1-.4,3.7-.7,7.4-1.2,11,7.5,4.8,16.5,7.6,26.1,7.6,15.6,0,29.5-7.4,38.4-18.9-2.1-2.8-3.9-5.8-5.4-9-6.9,11-19.1,18.3-33,18.3Z"/>
    <path class="cls-1" d="M1815.8,1499.5c0-11-8.9-19.9-19.9-19.9s-19.9,8.9-19.9,19.9,8.9,19.9,19.9,19.9,19.9-8.9,19.9-19.9Z"/>
    <path class="cls-1" d="M1446.2,1549.2v11.8h107.8v-11.8h-107.8Z"/>
    <path class="cls-1" d="M1556.9,1454.1c-1.7.2-4.3-.4-5.3-1.4-14.8-14.7-29.4-11.7-38-7.5-3.5,1.7-7.6-.9-7.6-4.9v-11.3c3.3-2,5.6-5.6,5.6-9.8,0-6.3-5.1-11.5-11.5-11.5s-11.5,5.1-11.5,11.5,2.3,7.8,5.6,9.8v1.5c0,0,0,9.7,0,9.7,0,3.9-4.1,6.6-7.6,4.9-8.6-4.2-23.3-7.2-38,7.5-.9.9-3.6,1.6-5.3,1.4-14.7-2.2-27.4,4.2-30.6,17.1-1.6,6.5-1.9,13.9-.7,20.5,2.8,15.9,13.5,26.7,25.4,36.6,3.2,2.8,7.9,4.5,9,8.6v5.2h107.5v-5.2c1.1-4.1,5.8-5.8,9-8.6,11.9-9.8,22.6-20.7,25.4-36.6,1.2-6.7.9-14-.7-20.5-3.2-12.9-15.9-19.3-30.6-17.1ZM1464.1,1532.2c-2-.2-3.9-.5-5.9-1.4-2-.9-3.8-2.1-5.6-3.2-2-1.2-3.9-2.5-5.7-3.8-5.8-4.1-11.3-8.9-15.8-14.5-1.7-2.1-3.4-4.3-4.8-6.6-4.2-6.6-6.7-13.8-5.9-21.8,1.3-13.8,7.9-19.1,22-17,.9.1,1.5,1,1.4,1.9-3.5,24.5,6.5,44.4,21,64,0,0,0,0,0,0,1.2,1.5,1.2,2.3-.4,2.3ZM1494.4,1529.1c0,1.3-.9,2.4-2.1,2.6-7.7,1.4-13.2-1.5-17.9-7.3-12.5-15.5-22-32.1-20.5-52.9.5-7.7,2.1-15.4,11.1-18.3,7.2-2.3,16-.5,21.9,4.2,5.6,4.4,8,10.2,7.7,18.3l-.2,53.3ZM1507.7,1531.8c-1.2-.2-2.1-1.4-2.1-2.6l-.2-53.3c-.3-8.1,2.2-13.9,7.7-18.3,5.9-4.7,14.7-6.5,21.9-4.2,9,2.9,10.6,10.6,11.1,18.3,1.5,20.8-8,37.4-20.5,52.9-4.6,5.8-10.1,8.7-17.9,7.3ZM1573.9,1502.6c-1.5,2.3-3.1,4.5-4.8,6.6-4.6,5.5-10,10.3-15.8,14.5-1.9,1.3-3.8,2.6-5.7,3.8-1.9,1.1-3.7,2.3-5.6,3.2-2,.9-4,1.2-5.9,1.4-1.6,0-1.6-.8-.4-2.3,0,0,0,0,0,0,14.4-19.6,24.5-39.6,21-64-.1-.9.5-1.8,1.4-1.9,14.1-2.1,20.7,3.2,22,17,.8,8-1.7,15.2-5.9,21.8Z"/>
  </g>
  <g>
    <path class="cls-1" d="M1130.1,1801.3l49.6-42.5,8.4-11.2,18.5,21.6-12.3,6.7-49.6,42.5-8.5,11.1-18.5-21.6,12.4-6.6Z"/>
    <path class="cls-1" d="M1247.8,1907.8l-6.2,12.7-20.2-15.7,10.8-9.1,38.2-48.6-65.9,44.6-14.5-11.3,27.9-74.3-37.8,49.1-6.2,12.7-18.4-14.3,10.9-9,40-51.5,6-12.7,28.6,22.3-5.9,10.6-19.6,53,46.4-32.2,8.7-8.4,27.9,21.7-10.7,9-40,51.5Z"/>
    <path class="cls-1" d="M1279.9,1924.5l25.5-60,2.5-13.8,43.1,18.4c22.5,9.6,28,22.8,19.8,42.2-8.2,19.3-21.8,24.2-44.7,14.5l-19-8.1-6.6,15.5-.8,14.7-28.1-12,8.2-11.5ZM1329.2,1910.9c11,4.7,16.8,2.6,21.2-7.8,4.5-10.7,2.3-16.8-8.5-21.4l-16.7-7.1-12.5,29.3,16.4,7Z"/>
    <path class="cls-1" d="M1454.3,1970.8l-6.2,18.3-73.6-13.4,5.5-12.9,11.7-64.2-.6-14,72.2,13.2-.5,19.3-12.9-6-36.7-6.7-4.1,22.2,26.4,4.8,10-.2-3.4,18.5-9.3-3.7-26.4-4.8-4.3,23.8,38,6.9,14.1-1.1ZM1435.4,1884l-18.3-3.3,23.3-17.9,25.7,4.7-30.7,16.5Z"/>
    <path class="cls-1" d="M1569.4,1987.9l-31.2,1.3-2.4-11.2-16.5-22.6-15.6.7.9,20.8,3.8,13.7-28.7,1.2,2.5-13.9-2.8-65.1-3.7-13.5,48.1-2.1c23.8-1,34.7,8.6,35.5,27,.5,12.3-5.5,21.9-19,26.2l29.1,37.6ZM1520.3,1939.9c11.2-.5,17.4-5.1,17-14.6-.4-9.3-5.2-13.7-16.4-13.3l-19.7.8,1.2,27.7,17.8-.8Z"/>
    <path class="cls-1" d="M1592.1,1968l-14.1-63.8-5.9-12.7,27.8-6.1v14c0,0,14.2,63.8,14.2,63.8l5.8,12.7-27.8,6.1v-14Z"/>
    <path class="cls-1" d="M1732.6,1934.7l-25.7,10.6-5.7-10.6-4-4.1-37.4,15.4v5.7c0,0,3.5,11.6,3.5,11.6l-21.9,9,.7-91-6.7-6.8,26.3-10.9,70.9,71ZM1686,1919.1l-26.4-27.1.3,37.9,26.2-10.8Z"/>
    <path class="cls-1" d="M1799.2,1865.7l8.7,17.7-55.6,38.6-5.3-13-37.2-53.7-10.3-9.5,23.4-16.2,5.4,12.9,35.9,51.8,25.7-17.8,9.4-10.7Z"/>
    <path class="cls-1" d="M1869.7,1795.3l11.9,15.2-51.5,54.2-7.8-11.6-47.3-45-12-7.2,50.6-53.2,15.9,11-12.1,7.5-25.7,27,16.4,15.6,18.5-19.4,5.3-8.4,13.7,13-8.1,5.7-18.5,19.4,17.5,16.6,26.6-28,6.8-12.4Z"/>
  </g>
  <g>
    <path class="cls-1" d="M1231.1,1177.6l11.7,15.9-47.9,47.9-7.5-11.8-46.2-46.2-11.8-7.5,20.1-20.1,7.6,11.8,44.5,44.5,22.1-22.1,7.3-12.2Z"/>
    <path class="cls-1" d="M1332,1134.9l-23.6,14.7-7.4-9.5-4.6-3.4-34.4,21.4,1,5.6,5.3,10.9-20.1,12.5-14.3-89.8-7.7-5.5,24.2-15,81.6,58.3ZM1283.4,1127.1l-30.5-22.4,6.5,37.4,24-15Z"/>
    <path class="cls-1" d="M1376,1104.5l-13.6-63.7-5.9-12.7,46.8-10c21.4-4.6,32.3,3.4,35.4,18.1,2.1,9.8-1.5,17.2-11.5,22.4,14.8-.2,24,6.3,26.3,16.9,3.3,15.6-5.2,27.7-28.6,32.6l-49.1,10.5v-14.2ZM1403.3,1057.2c11.3-2.4,16.1-7.4,14.5-14.8-1.6-7.4-6.6-10.9-17.5-8.5l-16.4,3.5,4.9,22.9,14.5-3.1ZM1417.7,1094.5c10.9-2.3,14.2-7.9,12.5-15.8-1.7-7.9-8.9-10.8-19.5-8.5l-18.8,4,5.3,24.7,20.6-4.4Z"/>
    <path class="cls-1" d="M1562.6,1103.1l-27.8-.9-.9-12.1-1.9-5.4-40.5-1.3-2.3,5.2-1.6,12-23.7-.8,38-82.7-3.3-8.9,28.5.9,35.5,93.9ZM1526.5,1069.6l-12.9-35.6-15.4,34.7,28.3.9Z"/>
    <path class="cls-1" d="M1662.2,1083.9l-11.3,40.1c-11.7.9-22.6.3-37.3-3.9-29.1-8.2-43.1-30.6-34.6-60.9,8.6-30.3,33-41,61.8-32.9,12.6,3.6,20.7,7.4,28.8,12.4l-2.9,21.9-13.8-12.7c-4.8-2.4-9.8-4.2-15.6-5.9-15.6-4.4-30.2,1.2-36.4,23.3-6.2,22,1.4,35.2,18.3,40,5.6,1.6,10.5,2.2,16.2,2.6l4.5-16-2.8-15.1,25.1,7.1Z"/>
    <path class="cls-1" d="M1683.3,1107.7l23.9-40.3,4.3-13.3,24.5,14.5-9.5,10.3-24.6,41.4c-6.1,10.3-3.1,18.9,8.6,25.9,12,7.1,21.2,5.8,27.4-4.5l24.6-41.4,4.3-13.3,22.2,13.2-9.6,10.2-23.9,40.3c-11.8,19.8-29.4,23.1-53.9,8.6-24.5-14.5-30.1-31.6-18.3-51.4Z"/>
    <path class="cls-1" d="M1822.7,1231.7l-15.5,11.6-53.1-52.7,11.8-7.5,46-46.4,7.5-11.9,52.1,51.7-11.4,15.6-7.2-12.3-26.4-26.3-15.9,16,19,18.9,8.3,5.5-13.3,13.4-5.6-8.3-19-18.9-17,17.1,27.4,27.2,12.3,7.1Z"/>
  </g>
</svg>